# xmcd
#
# Track frame offsets:
#	150
#	20067
#	40788
#	57600
#	72503
#	88384
#	106127
#	118928
#	135318
#	146636
#	166873
#	182960
#
# Disc length: 2719 seconds
# Revision: 0
# Processed by: cddbd v1.5.2PL0 Copyright (c) Steve Scherf et al.
# Submitted via: dBpowerAMP V12.0
#
DISCID=b30a9d0c
DTITLE=Stray Birds - Magic Fire
DYEAR=2016
DGENRE=Country
TTITLE0=Shining in the Distance
TTITLE1=Third Day in a Row
TTITLE2=Sabrina
TTITLE3=Radio
TTITLE4=Where You Come From
TTITLE5=Fossil
TTITLE6=Hands of Man
TTITLE7=Somehow
TTITLE8=Sunday Morning
TTITLE9=Mississippi Pearl
TTITLE10=All the News
TTITLE11=When I Die
EXTD=
EXTT0=
EXTT1=
EXTT2=
EXTT3=
EXTT4=
EXTT5=
EXTT6=
EXTT7=
EXTT8=
EXTT9=
EXTT10=
EXTT11=
PLAYORDER=
